# xmcd CD database file
#
# Track frame offsets:
#	150
#	19296
#	32180
#	51131
#	64297
#
# Disc length: 1109 seconds
#
# Revision: 1
# Processed by: cddbd v1.5.2PL0 Copyright (c) Steve Scherf et al.
# Submitted via: CDex 1.70beta2
#
DISCID=42045305
DTITLE=Kylee - Everlasting
DYEAR=2010
DGENRE=Anime
TTITLE0=Everlasting
TTITLE1=The Luckiest Girl in the World
TTITLE2=IT'S YOU [STUDIO APARTMENT Remix]
TTITLE3=Everlasting [MOVIE Version]
TTITLE4=Everlasting [Less Vocal]
EXTD=YEAR: 2010
EXTT0=
EXTT1=
EXTT2=
EXTT3=
EXTT4=
PLAYORDER=
